<?xml version="1.0" encoding="utf-8"?>
<!-- Generator: Adobe Illustrator 15.0.2, SVG Export Plug-In . SVG Version: 6.00 Build 0)  -->
<!DOCTYPE svg PUBLIC "-//W3C//DTD SVG 1.1//EN" "http://www.w3.org/Graphics/SVG/1.1/DTD/svg11.dtd">
<svg version="1.1" xmlns="http://www.w3.org/2000/svg" xmlns:xlink="http://www.w3.org/1999/xlink" x="0px" y="0px" width="500px"
	 height="250px" viewBox="-865.5 307.5 500 250" enable-background="new -865.5 307.5 500 250" xml:space="preserve">
<g id="pukey2" inkscape:version="0.45.1" sodipodi:version="0.32" sodipodi:docbase="C:\Documents and Settings\Leif GW\Desktop" sodipodi:docname="studentvarning.svg" inkscape:output_extension="org.inkscape.output.svg.inkscape" xmlns:inkscape="http://www.inkscape.org/namespaces/inkscape" xmlns:sodipodi="http://sodipodi.sourceforge.net/DTD/sodipodi-0.dtd" xmlns:svg="http://www.w3.org/2000/svg" xmlns:rdf="http://www.w3.org/1999/02/22-rdf-syntax-ns#" xmlns:cc="http://web.resource.org/cc/" xmlns:dc="http://purl.org/dc/elements/1.1/">
	
		<sodipodi:namedview  id="base" pagecolor="#ffffff" bordercolor="#666666" borderopacity="1.0" inkscape:zoom="2.75" inkscape:cx="98.119932" inkscape:cy="10.084913" showgrid="true" showguides="true" inkscape:pageopacity="0.0" inkscape:pageshadow="2" inkscape:current-layer="layer1" inkscape:document-units="px" inkscape:grid-bbox="true" inkscape:guide-bbox="true" inkscape:window-width="761" inkscape:window-height="573" inkscape:window-x="22" inkscape:window-y="29">
		</sodipodi:namedview>
	<g id="path14_2_">
		<path fill="#BE986E" d="M-466.322,554.499c-26.117,0-30.303-2.772-30.964-3.621c-2.424-3.115-5.378-16.142,2.065-68.381
			c0.691-4.855,0.705-4.948-0.227-6.021c-0.583-0.672-1.417-1.035-2.27-1.035c-0.387,0-0.777,0.074-1.149,0.229
			c-3.672,1.524-7.351,3.345-10.91,5.106c-8.137,4.027-16.552,8.192-25.28,8.983c-1.279,0.116-2.593,0.175-3.904,0.176
			c-18.73,0.001-36.988-11.701-53.097-22.025l-2.95-1.888c-2.203-1.405-6.692-4.82-11.444-8.437
			c-10.372-7.892-17.978-13.577-21.389-14.864c-0.344-0.13-0.703-0.192-1.059-0.192c-0.729,0-1.448,0.266-2.008,0.771
			c-0.834,0.75-1.18,1.903-0.896,2.989c0.64,2.45,1.497,4.903,2.326,7.276c2.437,6.972,4.738,13.558,1.829,19.96
			c-4.406,9.696-32.762,70.886-37.405,79.799c-1.778,0.268-5.917,0.551-11.917,0.551c-4.499,0-8.668-0.165-11.758-0.451
			c0.921-2.52,1.992-5.023,3.106-7.627c0.501-1.17,1.002-2.343,1.492-3.521c1.761-4.346,4.661-11.15,8.018-19.028
			c10.314-24.205,18.296-43.165,19.467-48.768c2.184-10.456-1.981-18.744-5.656-26.056c-7.202-14.338-14.047-29.207-20.667-43.586
			c-2.292-4.979-4.583-9.955-6.891-14.917l-0.056-0.139c-0.174-0.429-0.475-1.165-0.56-1.601c0.017-0.017,0.033-0.034,0.05-0.052
			c1.837-1.954,3.691-4.038,5.654-6.244c5.593-6.287,11.377-12.788,17.541-17.169c0.726-0.51,1.376-0.942,1.975-1.313
			c3.272-2.033,7.227-2.979,12.45-2.979c3.394,0,6.946,0.395,10.382,0.775c2.093,0.232,4.256,0.473,6.333,0.615
			c8.394,0.58,16.875,2.227,25.076,3.818c5.975,1.16,12.153,2.359,18.332,3.161c9.985,1.293,20.559,1.922,32.326,1.922
			c4.574,0,9.26-0.094,14.325-0.285c7.557-0.284,15.66-0.778,26.272-1.604c1.933-0.15,3.864-0.307,5.796-0.463
			c9.55-0.771,19.425-1.569,29.117-1.67c0.561-0.005,1.125-0.009,1.69-0.009c3.041,0,6.621,0.088,10.122,0.736
			c9.534,1.767,18.288,6.197,25.317,12.813c15.007,14.12,22.229,36.098,18.4,55.991c-1.416,7.374-14.424,39.693-23.032,61.079
			c-6.217,15.444-9.48,23.59-9.903,25.444c-0.191,0.837-0.015,1.715,0.484,2.413s1.272,1.149,2.126,1.239
			c26.9,2.848,54.301,5.306,80.801,7.683l1.735,0.155c1.244,0.207,2.548,0.229,3.811,0.25c2.133,0.035,3.783,0.111,4.632,0.664
			c0.232,4.901,0.169,9.945,0.107,14.834c-0.017,1.307-0.033,2.611-0.044,3.913c-14.171,0.129-29.528,0.191-46.826,0.191
			c-8.042,0-16.08-0.013-24.12-0.033l-0.22-0.001c-2.183,0-5.266,0.076-8.835,0.163
			C-453.674,554.345-459.984,554.499-466.322,554.499z"/>
		<path fill="#231F20" d="M-652.804,357.423v6.003c3.227,0,6.695,0.385,10.05,0.757c2.123,0.235,4.319,0.479,6.456,0.626
			c8.21,0.567,16.226,2.123,24.711,3.771c6.02,1.169,12.245,2.378,18.519,3.191c10.114,1.31,20.813,1.946,32.711,1.946
			c4.612,0,9.334-0.094,14.437-0.287c7.599-0.285,15.739-0.782,26.394-1.61c1.935-0.151,3.869-0.308,5.803-0.464
			c9.498-0.767,19.319-1.561,28.902-1.66c0.553-0.005,1.107-0.009,1.663-0.009c2.904,0,6.313,0.082,9.575,0.687
			c8.966,1.661,17.198,5.827,23.808,12.048c14.276,13.432,21.148,34.329,17.509,53.24c-1.361,7.087-14.304,39.243-22.868,60.522
			c-7.074,17.575-9.59,23.902-10.045,25.897c-0.382,1.673-0.029,3.43,0.968,4.826c0.998,1.396,2.545,2.299,4.252,2.479
			c26.923,2.851,54.337,5.309,80.848,7.687l1.629,0.146c1.427,0.227,2.861,0.25,4.136,0.271c0.499,0.008,1.165,0.019,1.77,0.054
			c0.123,4.108,0.07,8.312,0.018,12.405c-0.004,0.324-0.008,0.649-0.012,0.976c-13.344,0.111-27.757,0.166-43.857,0.166
			c-8.039,0-16.074-0.014-24.112-0.034h-0.229c-2.22,0-5.319,0.076-8.908,0.164c-5.054,0.123-11.343,0.276-17.645,0.276
			c-22.208,0-27.592-2.041-28.745-2.693c-0.669-1.182-2.89-6.917-1.324-29.372c1.016-14.57,3.205-29.935,4.139-36.496
			c0.707-4.962,0.897-6.295-0.904-8.397c-1.123-1.312-2.758-2.076-4.484-2.099c-0.025,0-0.051-0.001-0.077-0.001
			c-0.79,0-1.571,0.156-2.301,0.459c-3.763,1.562-7.487,3.405-11.089,5.188c-8.253,4.086-16.049,7.944-24.22,8.686
			c-1.19,0.107-2.413,0.162-3.632,0.162c-17.852,0-35.718-11.45-51.481-21.553c-0.994-0.637-1.978-1.268-2.951-1.889
			c-2.099-1.339-6.539-4.718-11.241-8.295c-11.239-8.551-18.338-13.847-22.147-15.283c-0.688-0.26-1.405-0.387-2.117-0.387
			c-1.459,0-2.896,0.532-4.017,1.541c-1.668,1.501-2.359,3.808-1.792,5.979c0.67,2.568,1.548,5.079,2.397,7.508
			c2.329,6.666,4.34,12.422,1.929,17.729c-4.143,9.117-30.42,65.835-36.615,78.24c-1.949,0.176-5.268,0.351-9.975,0.351
			c-2.646,0-5.202-0.06-7.47-0.168c0.506-1.226,1.037-2.465,1.577-3.729c0.505-1.18,1.011-2.361,1.504-3.55
			c0.007-0.017,0.013-0.032,0.02-0.049c1.741-4.297,4.636-11.089,7.987-18.954c10.38-24.359,18.417-43.459,19.644-49.331
			c2.398-11.481-2.017-20.266-5.912-28.016c-7.179-14.292-14.013-29.137-20.622-43.493c-2.258-4.905-4.515-9.808-6.789-14.698
			c1.468-1.595,2.951-3.262,4.501-5.005c5.482-6.162,11.151-12.534,17.009-16.698c0.692-0.485,1.296-0.888,1.852-1.231
			c2.772-1.724,6.224-2.525,10.863-2.525L-652.804,357.423 M-652.806,357.423c-4.941,0-9.76,0.775-14.031,3.43
			c-0.715,0.443-1.426,0.922-2.132,1.418c-8.664,6.158-16.591,16.304-23.643,23.804c-1.62,1.288-0.652,3.435,0,5.045
			c9.104,19.572,17.937,39.358,27.628,58.652c4.001,7.961,7.292,15.033,5.4,24.094c-1.705,8.161-21.337,52.497-27.318,67.259
			c-2.048,4.932-4.312,9.751-5.823,14.793c3.406,0.664,9.769,0.959,15.755,0.959c6.53,0,12.611-0.352,13.904-0.959
			c2.267-3.436,34.953-74.115,38.15-81.151c4.513-9.931-1.496-19.713-3.983-29.236c5.254,1.981,26.183,19.134,32.277,23.022
			c16.809,10.723,36.85,24.384,57.661,24.384c1.387,0,2.781-0.062,4.175-0.188c13.224-1.198,25.046-9.317,37.068-14.307
			c0,0,0,0,0.001,0c0.288,0.004-10.442,63.352-1.938,74.279c3.072,3.948,18.484,4.779,33.333,4.779c10.81,0,21.321-0.44,26.553-0.44
			c0.072,0,0.143,0,0.213,0c8.043,0.021,16.084,0.033,24.128,0.033c16.604,0,33.211-0.056,49.813-0.219
			c0-7.605,0.322-15.335-0.109-22.942c-2.16-3.325-7.443-2.036-10.996-2.671c-27.51-2.468-55.115-4.934-82.609-7.844
			c1.075-4.709,30.648-74.605,32.957-86.624c4.071-21.153-3.561-43.943-19.291-58.744c-7.486-7.046-16.698-11.701-26.827-13.578
			c-3.503-0.649-7.103-0.786-10.669-0.786c-0.574,0-1.148,0.003-1.721,0.009c-11.733,0.122-23.423,1.229-35.114,2.142
			c-8.707,0.677-17.424,1.269-26.153,1.597c-4.733,0.179-9.472,0.282-14.211,0.282c-10.675,0-21.35-0.525-31.94-1.896
			c-14.595-1.893-28.874-5.98-43.587-6.997C-641.261,358.45-647.115,357.423-652.806,357.423L-652.806,357.423z"/>
	</g>
	<g id="path16_2_">
		<path fill="#BE986E" d="M-813.969,458.142c-1.7-5.452-2.848-10.555-3.48-15.472c13.479-2.188,27.149-4.297,40.398-6.341
			l4.318-0.667c2.649-0.408,5.208-0.75,7.684-1.081c12.804-1.711,23.863-3.188,35.464-12.348l0.087-0.071
			c10.696-9.12,21.36-18.551,31.721-27.737c3.718,7.081,7.106,14.457,10.397,21.62c0.465,1.014,0.932,2.028,1.399,3.043
			c-5.688,4.41-11.68,8.664-17.493,12.79c-4.413,3.133-8.976,6.372-13.368,9.652c-0.817,0.609-1.64,1.24-2.47,1.878
			c-4.407,3.381-8.964,6.877-14.024,8.134c-5.198,1.291-11.129,1.548-16.865,1.796c-2.705,0.116-5.501,0.237-8.171,0.467
			C-775.903,455.299-794.73,456.854-813.969,458.142z"/>
		<path fill="#231F20" d="M-698.675,399.231c2.957,5.852,5.705,11.834,8.568,18.066c0.133,0.289,0.266,0.579,0.399,0.868
			c-5.072,3.86-10.357,7.612-15.503,11.265c-4.427,3.144-9.005,6.393-13.426,9.694c-0.828,0.618-1.661,1.257-2.501,1.901
			c-4.163,3.194-8.467,6.497-12.919,7.604c-4.906,1.218-10.684,1.468-16.272,1.709c-2.735,0.118-5.564,0.241-8.294,0.476
			c-16.793,1.431-34.774,2.918-53.159,4.171c-0.98-3.4-1.73-6.661-2.263-9.826c12.517-2.017,25.164-3.968,37.448-5.863l4.322-0.667
			c2.62-0.404,5.164-0.744,7.624-1.073c12.691-1.695,24.679-3.298,36.926-12.967l0.089-0.069l0.086-0.074
			C-717.827,416.154-708.135,407.612-698.675,399.231 M-696.927,389.66c-11.433,10.139-22.867,20.283-34.518,30.218
			c-13.118,10.356-25.497,10.312-41.746,12.818c-15.857,2.448-31.715,4.881-47.551,7.469c0.651,7.218,2.372,14.331,4.635,21.126
			c19.349-1.271,38.677-2.85,57.993-4.496c8.248-0.708,17.475-0.347,25.502-2.34c6.676-1.658,12.226-6.533,17.566-10.521
			c10.781-8.052,22.217-15.583,32.785-23.948C-687.005,409.736-691.533,399.49-696.927,389.66L-696.927,389.66z"/>
	</g>
	<g id="path18_2_">
		<path fill="#BE986E" d="M-838.685,464.754c-4.229-8.103-8.242-16.466-12.134-24.577c-2.801-5.838-5.697-11.874-8.654-17.772
			c-0.889-1.662-1.659-3.43-2.346-5.381c3.28-1.359,6.758-2.395,10.398-3.479c3.356-0.999,6.825-2.031,10.146-3.351
			c0.895-0.23,1.761-0.538,2.602-0.836c1.239-0.439,2.416-0.856,3.392-0.929c2.018,8.276,3.862,16.724,5.651,24.912
			c1.655,7.575,3.366,15.408,5.212,23.109l0.035,0.133c0.29,1.004,0.496,1.998,0.618,2.974
			C-828.875,461.425-834.013,463.182-838.685,464.754z"/>
		<path fill="#231F20" d="M-837.48,412.12c1.733,7.284,3.347,14.673,4.917,21.861c1.658,7.591,3.372,15.439,5.226,23.169
			l0.032,0.134l0.039,0.133c0.019,0.065,0.037,0.131,0.055,0.195c-3.4,1.219-6.782,2.385-9.994,3.474
			c-3.777-7.345-7.392-14.88-10.908-22.208c-2.807-5.849-5.708-11.896-8.677-17.819l-0.036-0.071l-0.038-0.071
			c-0.37-0.691-0.721-1.413-1.055-2.172c2.347-0.832,4.81-1.565,7.354-2.322c3.363-1.001,6.837-2.035,10.228-3.371
			c0.956-0.257,1.858-0.577,2.667-0.863C-837.609,412.165-837.545,412.143-837.48,412.12 M-834.996,405.418
			c-2.397,0-4.896,1.355-7.205,1.914c-7.552,3.03-15.962,4.499-23.299,8.052c0.864,2.93,1.944,5.752,3.343,8.365
			c7.443,14.848,14.234,30.016,22.005,44.663c6.575-2.203,13.051-4.403,19.517-6.81c0-1.985-0.322-3.974-0.865-5.852
			c-3.987-16.626-7.227-33.359-11.321-49.886C-833.53,405.546-834.258,405.418-834.996,405.418L-834.996,405.418z"/>
	</g>
	<g>
		<path fill="#FFFFFF" d="M-760.61,366.516c0.156,0.461,0.314,0.926,0.469,1.386c0.72,1.735,1.645,3.37,2.642,4.955l1.193-3.141
			L-760.61,366.516z"/>
	</g>
</g>
<g id="Layer_4">
	<g>
		<path fill="#BE986E" d="M-722.458,389.959c-21.833,0-39.595-17.822-39.595-39.729c0-21.906,17.762-39.729,39.595-39.729
			c21.833,0,39.595,17.822,39.595,39.729C-682.862,372.137-700.625,389.959-722.458,389.959z"/>
		<path fill="#231F20" d="M-722.458,313.503c20.178,0,36.594,16.476,36.594,36.727c0,20.252-16.416,36.728-36.594,36.728
			c-20.178,0-36.594-16.476-36.594-36.728C-759.051,329.979-742.635,313.503-722.458,313.503 M-722.458,307.5
			c-23.526,0-42.596,19.13-42.596,42.729c0,23.601,19.07,42.73,42.596,42.73c23.527,0,42.597-19.13,42.597-42.73
			C-679.861,326.63-698.931,307.5-722.458,307.5L-722.458,307.5z"/>
	</g>
</g>
<g id="Layer_3">
	<g>
		<path fill="#231F20" d="M-755.127,369.76l4.997-4.117l5.694,2.096l-0.928-6.016l4.99-4.113l0.978,11.412l12.63,3.612l-4.888,4.022
			l-7.456-2.414l0.595,8.063l-4.904,4.042l-0.746-13.408L-755.127,369.76z"/>
		<path fill="#231F20" d="M-738.771,356.293l4.993-4.113l5.701,2.093l-0.937-6.016l4.997-4.109l0.977,11.405l12.63,3.615
			l-4.889,4.026l-7.457-2.419l0.599,8.067l-4.913,4.039l-0.737-13.405L-738.771,356.293z"/>
	</g>
</g>
</svg>
